<svg width="66" height="7" viewBox="0 0 66 7" fill="none" xmlns="http://www.w3.org/2000/svg">
<g id="Coffee House">
<path id="Vector" d="M61.4023 6.00007V0.181885H65.1864V1.06541H62.4563V2.64495H64.9904V3.52848H62.4563V5.11654H65.2092V6.00007H61.4023Z" fill="#403F3D"/>
<path id="Vector_2" d="M58.9698 1.78127C58.9433 1.53317 58.8316 1.33998 58.6346 1.20173C58.4395 1.06347 58.1857 0.99434 57.8732 0.99434C57.6535 0.99434 57.4651 1.02748 57.3079 1.09377C57.1507 1.16006 57.0304 1.25002 56.9471 1.36366C56.8638 1.4773 56.8211 1.60703 56.8192 1.75286C56.8192 1.87408 56.8467 1.97919 56.9016 2.0682C56.9585 2.15722 57.0352 2.23298 57.1317 2.29548C57.2283 2.35608 57.3353 2.40722 57.4528 2.44889C57.5702 2.49055 57.6886 2.52559 57.8079 2.554L58.3533 2.69036C58.573 2.7415 58.7842 2.81063 58.9869 2.89775C59.1914 2.98487 59.3742 3.09472 59.5352 3.2273C59.698 3.35987 59.8268 3.51991 59.9215 3.70741C60.0162 3.89491 60.0636 4.11461 60.0636 4.3665C60.0636 4.70741 59.9764 5.0076 59.8022 5.26707C59.628 5.52464 59.3761 5.72635 59.0465 5.87218C58.7189 6.01612 58.3221 6.08809 57.8562 6.08809C57.4035 6.08809 57.0105 6.01801 56.6772 5.87786C56.3458 5.73771 56.0863 5.53317 55.8988 5.26423C55.7132 4.99529 55.6128 4.66764 55.5977 4.28127H56.6346C56.6497 4.48392 56.7122 4.65248 56.8221 4.78695C56.9319 4.92142 57.0749 5.0218 57.2511 5.08809C57.4291 5.15438 57.628 5.18752 57.8477 5.18752C58.0768 5.18752 58.2776 5.15343 58.4499 5.08525C58.6242 5.01517 58.7605 4.91858 58.859 4.79548C58.9575 4.67048 59.0077 4.52464 59.0096 4.35798C59.0077 4.20646 58.9632 4.08146 58.8761 3.98298C58.7889 3.8826 58.6668 3.79926 58.5096 3.73298C58.3543 3.6648 58.1725 3.60419 57.9641 3.55116L57.3022 3.3807C56.823 3.2576 56.4442 3.07105 56.1658 2.82105C55.8893 2.56915 55.7511 2.23487 55.7511 1.8182C55.7511 1.4754 55.8439 1.17521 56.0295 0.917636C56.217 0.66006 56.4717 0.46025 56.7937 0.318204C57.1156 0.174265 57.4802 0.102295 57.8874 0.102295C58.3003 0.102295 58.6621 0.174265 58.9727 0.318204C59.2852 0.46025 59.5304 0.658166 59.7085 0.911954C59.8865 1.16385 59.9783 1.45362 59.984 1.78127H58.9698Z" fill="#403F3D"/>
<path id="Vector_3" d="M53.2086 0.181885H54.2626V3.98302C54.2626 4.39969 54.1641 4.76617 53.9672 5.08245C53.7721 5.39874 53.4975 5.6459 53.1433 5.82393C52.7891 6.00007 52.3753 6.08813 51.9018 6.08813C51.4264 6.08813 51.0117 6.00007 50.6575 5.82393C50.3033 5.6459 50.0287 5.39874 49.8336 5.08245C49.6386 4.76617 49.541 4.39969 49.541 3.98302V0.181885H50.595V3.89495C50.595 4.13738 50.648 4.35329 50.7541 4.54268C50.862 4.73207 51.0136 4.88075 51.2086 4.9887C51.4037 5.09476 51.6348 5.14779 51.9018 5.14779C52.1689 5.14779 52.3999 5.09476 52.595 4.9887C52.792 4.88075 52.9435 4.73207 53.0495 4.54268C53.1556 4.35329 53.2086 4.13738 53.2086 3.89495V0.181885Z" fill="#403F3D"/>
<path id="Vector_4" d="M48.1435 3.09093C48.1435 3.71783 48.026 4.25476 47.7912 4.70173C47.5582 5.1468 47.2401 5.48771 46.8366 5.72445C46.4351 5.9612 45.9796 6.07957 45.4702 6.07957C44.9607 6.07957 44.5043 5.9612 44.1009 5.72445C43.6993 5.48582 43.3812 5.14396 43.1463 4.69889C42.9134 4.25192 42.7969 3.71593 42.7969 3.09093C42.7969 2.46404 42.9134 1.92805 43.1463 1.48298C43.3812 1.03601 43.6993 0.694151 44.1009 0.457408C44.5043 0.220666 44.9607 0.102295 45.4702 0.102295C45.9796 0.102295 46.4351 0.220666 46.8366 0.457408C47.2401 0.694151 47.5582 1.03601 47.7912 1.48298C48.026 1.92805 48.1435 2.46404 48.1435 3.09093ZM47.0838 3.09093C47.0838 2.64964 47.0147 2.27748 46.8764 1.97445C46.7401 1.66953 46.5507 1.43942 46.3082 1.28411C46.0658 1.12692 45.7865 1.04832 45.4702 1.04832C45.1539 1.04832 44.8745 1.12692 44.6321 1.28411C44.3897 1.43942 44.1993 1.66953 44.0611 1.97445C43.9247 2.27748 43.8565 2.64964 43.8565 3.09093C43.8565 3.53222 43.9247 3.90533 44.0611 4.21025C44.1993 4.51328 44.3897 4.74339 44.6321 4.90059C44.8745 5.05589 45.1539 5.13354 45.4702 5.13354C45.7865 5.13354 46.0658 5.05589 46.3082 4.90059C46.5507 4.74339 46.7401 4.51328 46.8764 4.21025C47.0147 3.90533 47.0838 3.53222 47.0838 3.09093Z" fill="#403F3D"/>
<path id="Vector_5" d="M36.5918 6.00007V0.181885H37.6458V2.64495H40.3418V0.181885H41.3986V6.00007H40.3418V3.52848H37.6458V6.00007H36.5918Z" fill="#403F3D"/>
<path id="Vector_6" d="M28.9492 6.00007V0.181885H32.7333V1.06541H30.0032V2.64495H32.5373V3.52848H30.0032V5.11654H32.756V6.00007H28.9492Z" fill="#403F3D"/>
<path id="Vector_7" d="M23.6895 6.00007V0.181885H27.4735V1.06541H24.7434V2.64495H27.2775V3.52848H24.7434V5.11654H27.4963V6.00007H23.6895Z" fill="#403F3D"/>
<path id="Vector_8" d="M18.6016 6.00007V0.181885H22.3288V1.06541H19.6555V2.64495H22.0732V3.52848H19.6555V6.00007H18.6016Z" fill="#403F3D"/>
<path id="Vector_9" d="M13.5137 6.00007V0.181885H17.2409V1.06541H14.5676V2.64495H16.9853V3.52848H14.5676V6.00007H13.5137Z" fill="#403F3D"/>
<path id="Vector_10" d="M12.1181 3.09093C12.1181 3.71783 12.0007 4.25476 11.7658 4.70173C11.5328 5.1468 11.2147 5.48771 10.8113 5.72445C10.4097 5.9612 9.95425 6.07957 9.44478 6.07957C8.93531 6.07957 8.47887 5.9612 8.07546 5.72445C7.67395 5.48582 7.35576 5.14396 7.12092 4.69889C6.88796 4.25192 6.77148 3.71593 6.77148 3.09093C6.77148 2.46404 6.88796 1.92805 7.12092 1.48298C7.35576 1.03601 7.67395 0.694151 8.07546 0.457408C8.47887 0.220666 8.93531 0.102295 9.44478 0.102295C9.95425 0.102295 10.4097 0.220666 10.8113 0.457408C11.2147 0.694151 11.5328 1.03601 11.7658 1.48298C12.0007 1.92805 12.1181 2.46404 12.1181 3.09093ZM11.0584 3.09093C11.0584 2.64964 10.9893 2.27748 10.851 1.97445C10.7147 1.66953 10.5253 1.43942 10.2828 1.28411C10.0404 1.12692 9.76107 1.04832 9.44478 1.04832C9.12849 1.04832 8.84914 1.12692 8.60671 1.28411C8.36429 1.43942 8.17395 1.66953 8.03569 1.97445C7.89933 2.27748 7.83114 2.64964 7.83114 3.09093C7.83114 3.53222 7.89933 3.90533 8.03569 4.21025C8.17395 4.51328 8.36429 4.74339 8.60671 4.90059C8.84914 5.05589 9.12849 5.13354 9.44478 5.13354C9.76107 5.13354 10.0404 5.05589 10.2828 4.90059C10.5253 4.74339 10.7147 4.51328 10.851 4.21025C10.9893 3.90533 11.0584 3.53222 11.0584 3.09093Z" fill="#403F3D"/>
<path id="Vector_11" d="M5.55362 2.14491H4.49112C4.46082 1.97067 4.40495 1.81631 4.32351 1.68184C4.24207 1.54548 4.14074 1.42995 4.01953 1.33525C3.89832 1.24055 3.76006 1.16953 3.60476 1.12218C3.45135 1.07294 3.28563 1.04832 3.1076 1.04832C2.79131 1.04832 2.51101 1.12786 2.26669 1.28695C2.02237 1.44415 1.83108 1.67521 1.69283 1.98014C1.55457 2.28317 1.48544 2.65343 1.48544 3.09093C1.48544 3.53601 1.55457 3.91101 1.69283 4.21593C1.83298 4.51896 2.02427 4.74813 2.26669 4.90343C2.51101 5.05684 2.79036 5.13354 3.10476 5.13354C3.279 5.13354 3.44188 5.11082 3.59339 5.06536C3.7468 5.01801 3.88411 4.94889 4.00533 4.85798C4.12843 4.76707 4.23165 4.65532 4.31499 4.52275C4.40021 4.39017 4.45893 4.23866 4.49112 4.0682L5.55362 4.07389C5.51385 4.3504 5.42768 4.60987 5.2951 4.8523C5.16442 5.09472 4.99302 5.30873 4.78089 5.49434C4.56877 5.67805 4.32067 5.82199 4.03658 5.92616C3.75249 6.02843 3.43714 6.07957 3.09055 6.07957C2.57919 6.07957 2.12275 5.9612 1.72124 5.72445C1.31972 5.48771 1.00343 5.14586 0.772372 4.69889C0.541312 4.25192 0.425781 3.71593 0.425781 3.09093C0.425781 2.46404 0.542259 1.92805 0.775213 1.48298C1.00817 1.03601 1.3254 0.694151 1.72692 0.457408C2.12843 0.220666 2.58298 0.102295 3.09055 0.102295C3.41442 0.102295 3.71555 0.147749 3.99396 0.238658C4.27237 0.329568 4.52048 0.463091 4.73828 0.639227C4.95608 0.813469 5.13506 1.02748 5.27521 1.28127C5.41726 1.53317 5.51006 1.82104 5.55362 2.14491Z" fill="#403F3D"/>
</g>
</svg>
