<svg width="93" height="23" viewBox="0 0 93 23" fill="none" xmlns="http://www.w3.org/2000/svg">
<g id="Resource">
<path id="Vector" d="M91.6784 10.2913C91.8856 10.2732 92.0534 10.3548 92.1817 10.5364C92.326 10.7165 92.4127 10.9739 92.442 11.3086C92.4922 11.8824 92.4 12.3884 92.1652 12.8265C91.7789 13.5509 91.2359 14.1365 90.5362 14.5832C89.8524 15.0285 89.0084 15.295 88.0042 15.3829C86.4741 15.5168 85.2469 15.1664 84.3226 14.3318C83.3969 13.4812 82.8658 12.2749 82.7291 10.7129C82.6329 9.61307 82.7748 8.57275 83.1547 7.5919C83.5333 6.59511 84.1046 5.78223 84.8687 5.15324C85.6487 4.52286 86.5568 4.16234 87.5928 4.0717C88.5173 3.99082 89.2829 4.20491 89.8895 4.71397C90.4948 5.2071 90.8386 5.92386 90.9209 6.86427C91.0171 7.96407 90.7016 8.94731 89.9743 9.81399C89.2617 10.6633 87.9772 11.4021 86.1208 12.0303C86.5675 12.73 87.2451 13.0401 88.1537 12.9606C88.8072 12.9035 89.3279 12.7053 89.7158 12.3662C90.1197 12.0257 90.5692 11.4725 91.0643 10.7064C91.2346 10.4506 91.4393 10.3122 91.6784 10.2913ZM87.3914 6.45031C86.8016 6.50191 86.3295 6.88852 85.9751 7.61016C85.6365 8.33041 85.5098 9.17667 85.5949 10.149L85.5991 10.1968C86.5199 9.89135 87.2318 9.49179 87.7347 8.99808C88.2376 8.50437 88.4632 7.96264 88.4117 7.3729C88.3852 7.07005 88.2766 6.83864 88.0859 6.67864C87.9098 6.50132 87.6783 6.42521 87.3914 6.45031Z" fill="#403F3D"/>
<path id="Vector_2" d="M79.2976 16.1446C77.7356 16.2813 76.4779 15.9497 75.5245 15.1497C74.5857 14.3324 74.0529 13.1985 73.926 11.7481C73.813 10.457 73.969 9.30303 74.394 8.28612C74.819 7.26921 75.4149 6.4622 76.1818 5.86509C76.9487 5.26798 77.7784 4.93038 78.671 4.85228C79.5477 4.77559 80.2481 4.97932 80.7723 5.46347C81.311 5.9303 81.6159 6.57015 81.6871 7.38305C81.7456 8.05249 81.6437 8.63158 81.3813 9.12031C81.1348 9.60764 80.7725 9.87223 80.2944 9.91406C79.9915 9.94056 79.7382 9.89045 79.5344 9.76373C79.3465 9.63562 79.2414 9.44405 79.2191 9.18902C79.2093 9.07745 79.2141 8.94854 79.2334 8.8023C79.2527 8.65606 79.2676 8.55036 79.278 8.48521C79.3367 8.23915 79.357 8.01252 79.3389 7.80531C79.3208 7.5981 79.2511 7.44359 79.1297 7.34178C79.0243 7.23857 78.876 7.19533 78.6847 7.21207C78.3181 7.24414 77.9901 7.44148 77.7006 7.8041C77.4097 8.15077 77.193 8.6114 77.0506 9.18601C76.9081 9.76061 76.8661 10.3826 76.9247 11.0521C77.0865 12.901 77.9723 13.7551 79.5821 13.6142C80.2356 13.557 80.9181 13.2805 81.6296 12.7846C82.3556 12.2714 83.0469 11.5444 83.7034 10.6036C83.8752 10.3637 84.0806 10.2333 84.3197 10.2124C84.5269 10.1942 84.6946 10.2759 84.8229 10.4574C84.9672 10.6375 85.054 10.895 85.0832 11.2297C85.1362 11.8354 85.028 12.3427 84.7587 12.7518C84.0904 13.7418 83.2526 14.5378 82.2452 15.1399C81.2524 15.7247 80.2699 16.0596 79.2976 16.1446Z" fill="#403F3D"/>
<path id="Vector_3" d="M65.549 17.3476C64.9433 17.4006 64.485 17.1195 64.1742 16.5042C63.8794 15.8876 63.6706 14.8779 63.5479 13.4753C63.3666 11.4032 63.4892 9.40892 63.9158 7.49245C64.0188 7.01766 64.2207 6.66272 64.5213 6.42762C64.8365 6.17519 65.289 6.02318 65.8787 5.97158C66.1975 5.94369 66.4242 5.96402 66.5586 6.03256C66.6931 6.10109 66.7701 6.24694 66.7897 6.47009C66.812 6.72511 66.7426 7.30938 66.5816 8.22289C66.478 8.8744 66.3993 9.44342 66.3455 9.92996C66.2917 10.4165 66.2636 11.0132 66.2612 11.7201C66.6673 10.3033 67.1594 9.13601 67.7376 8.21812C68.3158 7.30023 68.8997 6.6308 69.4892 6.20981C70.0947 5.78743 70.6605 5.55323 71.1865 5.50722C72.2225 5.41657 72.7858 5.88927 72.8765 6.92532C72.8946 7.13252 72.8668 7.64088 72.7931 8.45039C72.7214 9.09911 72.6925 9.50316 72.7064 9.66256C72.7552 10.2204 72.9789 10.4819 73.3773 10.4471C73.8236 10.408 74.3668 10.0072 75.0067 9.24448C75.1958 9.01914 75.4019 8.89671 75.6251 8.87719C75.8323 8.85906 76 8.94075 76.1283 9.12226C76.2712 9.28643 76.3559 9.51994 76.3824 9.82279C76.434 10.4125 76.315 10.8887 76.0255 11.2513C75.6197 11.7526 75.1285 12.1971 74.5521 12.5848C73.9903 12.9552 73.3746 13.1697 72.7052 13.2282C71.8604 13.3021 71.196 13.1434 70.7121 12.7521C70.2441 12.3594 69.978 11.7965 69.9139 11.0633C69.8929 10.8242 69.8959 10.583 69.9228 10.3397C69.9268 10.0182 69.9239 9.80159 69.9142 9.69002C69.8919 9.43499 69.793 9.31515 69.6177 9.33049C69.3786 9.35141 69.0836 9.65026 68.7325 10.2271C68.396 10.7865 68.0748 11.5213 67.7689 12.4314C67.4631 13.3415 67.2332 14.2932 67.0791 15.2864C66.9694 16.0509 66.8068 16.5791 66.5914 16.8709C66.3906 17.1455 66.0431 17.3044 65.549 17.3476Z" fill="#403F3D"/>
<path id="Vector_4" d="M55.2462 18.2488C54.5289 18.3116 53.9106 18.0364 53.3912 17.4233C52.8863 16.7929 52.5906 15.9836 52.5042 14.9954C52.3996 13.8 52.3838 12.7012 52.4567 11.699C52.5282 10.6809 52.6985 9.59792 52.9675 8.45011C53.085 7.95799 53.2782 7.59578 53.547 7.36347C53.8157 7.13116 54.2609 6.98781 54.8826 6.93343C55.2332 6.90275 55.4772 6.93762 55.6145 7.03804C55.7677 7.13706 55.8541 7.29815 55.8736 7.52129C55.8847 7.64881 55.8347 8.08683 55.7235 8.83537C55.6157 9.43906 55.5349 9.98418 55.4811 10.4707C55.3088 12.1722 55.247 13.3019 55.2958 13.8598C55.3251 14.1945 55.3859 14.4301 55.4781 14.5666C55.569 14.6871 55.7021 14.7397 55.8774 14.7244C56.1165 14.7035 56.3904 14.4386 56.6993 13.9297C57.024 13.4195 57.3431 12.6608 57.6565 11.6536C57.9859 10.6451 58.2798 9.41479 58.5382 7.96274C58.6239 7.47341 58.7852 7.11398 59.0221 6.88446C59.2749 6.65355 59.6643 6.51508 60.1903 6.46906C60.5569 6.43699 60.8161 6.46249 60.9679 6.54558C61.1184 6.61272 61.204 6.76584 61.2249 7.00493C61.2598 7.4034 61.1561 8.51267 60.9138 10.3327C60.646 12.412 60.533 13.6907 60.5748 14.1688C60.6013 14.4717 60.686 14.7052 60.8289 14.8694C60.9703 15.0176 61.1447 15.0827 61.3519 15.0645C61.6706 15.0366 62.0285 14.8126 62.4254 14.3924C62.8368 13.9549 63.3708 13.2657 64.0273 12.3249C64.199 12.0851 64.4044 11.9547 64.6435 11.9337C64.8507 11.9156 65.0185 11.9973 65.1468 12.1788C65.291 12.3589 65.3778 12.6163 65.4071 12.9511C65.4629 13.5886 65.3547 14.096 65.0825 14.4731C64.471 15.3779 63.7905 16.1361 63.041 16.7477C62.3074 17.358 61.4385 17.707 60.4343 17.7949C59.6693 17.8618 59.0776 17.6165 58.6594 17.0588C58.2572 16.4997 58.0093 15.6862 57.9159 14.6183C57.7398 15.7259 57.4065 16.5982 56.9162 17.2354C56.4245 17.8566 55.8678 18.1944 55.2462 18.2488Z" fill="#403F3D"/>
<path id="Vector_5" d="M53.5606 10.8796C53.7678 10.8614 53.9362 10.9511 54.0659 11.1485C54.1956 11.346 54.2744 11.6041 54.3023 11.9229C54.3692 12.688 54.1779 13.1625 53.7282 13.3463C52.8011 13.7647 51.7659 14.048 50.6225 14.1963C50.4367 15.5616 49.9332 16.6898 49.1117 17.5808C48.2888 18.4559 47.3115 18.9429 46.1799 19.0419C45.2235 19.1256 44.3824 18.9663 43.6566 18.564C42.9467 18.1603 42.383 17.5913 41.9654 16.8569C41.5478 16.1225 41.3 15.309 41.2219 14.4164C41.1159 13.205 41.2529 12.1089 41.6328 11.1281C42.0114 10.1313 42.5841 9.33435 43.351 8.73724C44.1165 8.12419 44.9933 7.77444 45.9816 7.68798C47.1929 7.582 48.2022 7.91932 49.0093 8.69994C49.8309 9.46324 50.3592 10.453 50.5941 11.6691C51.339 11.5558 52.2177 11.3183 53.23 10.9567C53.3547 10.9136 53.4649 10.8879 53.5606 10.8796ZM46.1494 16.4908C46.6595 16.4462 47.0797 16.2007 47.41 15.7542C47.7563 15.3063 47.959 14.6863 48.0182 13.8941C47.4948 13.6026 47.0739 13.1977 46.7555 12.6795C46.4531 12.1599 46.2754 11.5972 46.2224 10.9916C46.2001 10.7365 46.2017 10.4794 46.2272 10.2202L46.1076 10.2307C45.4701 10.2864 44.9633 10.644 44.5873 11.3032C44.2259 11.9452 44.094 12.824 44.1916 13.9398C44.2683 14.8164 44.4942 15.4712 44.8694 15.9042C45.2605 16.3357 45.6872 16.5313 46.1494 16.4908Z" fill="#403F3D"/>
<path id="Vector_6" d="M36.3103 20.4354C35.4815 20.508 34.8272 20.3725 34.3474 20.029C33.8836 19.6841 33.6307 19.2726 33.5889 18.7944C33.5527 18.38 33.6727 18.0081 33.9491 17.6787C34.2254 17.3494 34.6584 17.1589 35.2482 17.1073C35.4554 17.0892 35.6966 17.0922 35.9717 17.1163C36.2614 17.1231 36.4787 17.1282 36.6235 17.1316C36.5713 16.7185 36.4415 16.3364 36.2341 15.9851C36.0427 15.6325 35.8048 15.3 35.5205 14.9876C35.2348 14.6592 34.9692 14.3773 34.7237 14.1418C34.3119 15.1254 33.8861 15.9497 33.4464 16.6145C33.0226 17.278 32.5482 17.9137 32.0232 18.5218C31.7614 18.8338 31.4711 19.0038 31.1523 19.0316C30.8973 19.054 30.6824 18.9844 30.5077 18.823C30.3316 18.6457 30.2316 18.4216 30.2079 18.1506C30.1801 17.8318 30.2658 17.5272 30.4653 17.2367L30.7426 16.827C31.5244 15.6664 32.1078 14.7159 32.4928 13.9756C32.7233 13.4896 32.9884 12.8481 33.288 12.0509C33.5863 11.2379 33.8745 10.4016 34.1527 9.54204C34.3942 8.81423 34.9931 8.40848 35.9494 8.32481C36.3957 8.28577 36.71 8.29842 36.8923 8.36278C37.0746 8.42713 37.1734 8.54698 37.1888 8.72231C37.1971 8.81794 37.1785 8.97215 37.1329 9.18494C37.0873 9.39773 37.0177 9.6126 36.9243 9.82957C36.6876 10.4285 36.5867 10.9272 36.6215 11.3257C36.6424 11.5647 36.7451 11.8208 36.9296 12.0937C37.1301 12.3653 37.4244 12.7009 37.8127 13.1006C38.3814 13.7254 38.8141 14.2657 39.111 14.7216C39.4224 15.1601 39.6025 15.6583 39.6513 16.2162C39.6652 16.3756 39.6688 16.6001 39.662 16.8898C40.4166 16.5187 41.2626 15.6335 42.2003 14.2345C42.372 13.9946 42.5774 13.8642 42.8165 13.8433C43.0237 13.8252 43.1915 13.9069 43.3198 14.0884C43.464 14.2685 43.5508 14.5259 43.5801 14.8606C43.6331 15.4663 43.5249 15.9737 43.2555 16.3827C42.545 17.4407 41.8392 18.185 41.1381 18.6158C40.4515 19.0292 39.5756 19.2985 38.5105 19.4238C37.9204 20.0215 37.187 20.3587 36.3103 20.4354Z" fill="#403F3D"/>
<path id="Vector_7" d="M32.6161 14.7357C32.8233 14.7175 32.9911 14.7992 33.1194 14.9807C33.2636 15.1608 33.3504 15.4183 33.3797 15.753C33.4355 16.3905 33.3273 16.8979 33.0551 17.2751C32.5281 18.0439 31.7492 18.7786 30.7183 19.4791C29.7034 20.1782 28.5823 20.5815 27.355 20.6888C25.6814 20.8353 24.3426 20.4947 23.3386 19.667C22.3347 18.8394 21.7637 17.6365 21.6256 16.0586C21.5294 14.9588 21.6713 13.9185 22.0512 12.9376C22.4298 11.9408 23.0011 11.1279 23.7652 10.4989C24.5452 9.86856 25.4533 9.50805 26.4893 9.4174C27.4138 9.33652 28.1793 9.55061 28.786 10.0597C29.3913 10.5528 29.7351 11.2696 29.8173 12.21C29.9136 13.3098 29.5981 14.293 28.8708 15.1597C28.1581 16.009 26.8816 16.7471 25.0412 17.3739C25.5039 18.0722 26.293 18.3726 27.4088 18.275C28.126 18.2122 28.9173 17.894 29.7826 17.3204C30.6625 16.7295 31.4016 15.9983 31.9999 15.1269C32.1716 14.887 32.377 14.7566 32.6161 14.7357ZM26.2878 11.796C25.6981 11.8476 25.226 12.2342 24.8715 12.9559C24.533 13.6761 24.4063 14.5224 24.4914 15.4947L24.4955 15.5425C25.4164 15.2371 26.1283 14.8375 26.6312 14.3438C27.1341 13.8501 27.3597 13.3083 27.3081 12.7186C27.2816 12.4158 27.1731 12.1843 26.9824 12.0243C26.8063 11.847 26.5747 11.7709 26.2878 11.796Z" fill="#403F3D"/>
<path id="Vector_8" d="M23.6906 15.5167C23.8978 15.4986 24.0656 15.5803 24.1939 15.7618C24.3382 15.9419 24.4249 16.1993 24.4542 16.5341C24.5086 17.1557 24.4004 17.6631 24.1296 18.0561C23.4454 19.0476 22.7351 19.8324 21.9987 20.4108C21.261 20.9733 20.3581 21.3012 19.2902 21.3946C18.2541 21.4853 17.3451 21.2837 16.5631 20.79C15.797 20.2949 15.028 19.3985 14.256 18.1009C13.6351 17.063 13.151 16.3023 12.8035 15.8188C12.4547 15.3193 12.119 14.9712 11.7967 14.7745C11.4903 14.5765 11.1198 14.4724 10.6852 14.4622C10.6508 14.8025 10.5595 15.8705 10.4114 17.6663C10.3537 18.4744 10.3165 18.9675 10.3 19.1456C10.2256 20.1319 9.97238 20.9089 9.54023 21.4767C9.10668 22.0286 8.40376 22.3471 7.43148 22.4321C6.36356 22.5256 5.38799 22.2977 4.50477 21.7486C3.63609 21.1822 2.9298 20.3606 2.38589 19.2839C1.84059 18.1913 1.50518 16.9277 1.37968 15.4932C1.1454 12.8154 1.40544 10.4638 2.15978 8.43835C2.93006 6.4115 4.10738 4.81482 5.69174 3.64829C7.29064 2.46443 9.18989 1.77628 11.3895 1.58384C12.9196 1.44997 14.223 1.56883 15.2994 1.94043C16.3759 2.31202 17.1968 2.88265 17.762 3.65231C18.3432 4.42058 18.6784 5.31477 18.7676 6.33487C18.8457 7.22746 18.7073 8.12294 18.3522 9.02131C18.0117 9.90234 17.4476 10.7066 16.66 11.434C15.8724 12.1614 14.8869 12.7375 13.7034 13.1622C14.4866 13.3025 15.1057 13.5856 15.5605 14.0116C16.0154 14.4376 16.4891 15.0787 16.9816 15.9351C17.5115 16.8524 18.0112 17.5153 18.4806 17.924C18.966 18.3312 19.4955 18.5098 20.0693 18.4596C20.5794 18.4149 21.0509 18.205 21.4838 17.8299C21.9154 17.4388 22.4456 16.7981 23.0744 15.9079C23.2461 15.6681 23.4515 15.5377 23.6906 15.5167ZM7.38374 14.727C6.84181 14.7744 6.45609 14.6797 6.22657 14.4428C6.01299 14.2045 5.89225 13.9259 5.86436 13.6071C5.8309 13.2246 5.92394 12.9113 6.14351 12.6672C6.37901 12.4218 6.65615 12.2851 6.97494 12.2572L7.57265 12.2049C7.69102 10.6206 7.81227 9.2528 7.93641 8.1016C8.05297 7.04743 8.6771 6.47084 9.80877 6.37183C10.7173 6.29235 11.2071 6.65905 11.2782 7.47194C11.2936 7.64727 11.2975 7.78346 11.2899 7.88048L10.9199 11.9121C11.7764 11.789 12.5393 11.5134 13.2085 11.0855C13.8937 10.6561 14.4149 10.0966 14.7722 9.40679C15.1454 8.71564 15.2957 7.95564 15.2232 7.12681C15.1353 6.12264 14.7236 5.36364 13.988 4.84979C13.2524 4.33595 12.2232 4.1369 10.9002 4.25264C9.33819 4.3893 8.0016 4.89974 6.89043 5.78394C5.79381 6.65082 4.98568 7.87792 4.46605 9.46525C3.94503 11.0366 3.78003 12.9142 3.97108 15.0978C4.06033 16.1179 4.24063 16.9855 4.51198 17.7006C4.78334 18.4157 5.08648 18.9432 5.42139 19.2834C5.75631 19.6235 6.05925 19.7817 6.33021 19.7579C6.53742 19.7398 6.69572 19.6216 6.8051 19.4032C6.93043 19.1834 7.01272 18.839 7.05197 18.3698L7.38374 14.727Z" fill="#403F3D"/>
</g>
</svg>
